<?xml version="1.0" encoding="UTF-8"?>
<svg id="Calque_1" data-name="Calque 1" xmlns="http://www.w3.org/2000/svg" viewBox="0 0 339 321.75">
  <defs>
    <style>
      .cls-1 {
        fill: #fff;
      }
    </style>
  </defs>
  <path class="cls-1" d="m339,0H0c0,107.25,0,214.5,0,321.75,113,0,226,0,339,0,0-107.25,0-214.5,0-321.75Z"/>
  <path d="m301.44,171.44c.83.63,2.44,2.2,4.78,2.22,1.58.01,3.41-.69,3.44-1.44.06-1.38-5.88-2.94-9.89-3.44-3.46-.44-8.99-.54-15.93,1.95.09-1.04,1.43-7.4,2.34-11.45.18-.8.61-1.84,1.25-2.21,5.45-3.17,4.85-8.22,4.18-13.25-.26-1.96-.33-4.64-1.58-5.64-3.11-2.49-6.75-4.39-10.38-6.13-1.13-.54-3.25-.31-4.26.45-3.6,2.72-5.54.43-7.7-2.78,4.07-.45,8.13-1.05,12.22-1.3,3.48-.22,6.98-.09,10.47-.02,2.47.05,4.74.14,6.59,2.56,1.45,1.89,4.32,1.08,5.17.99,2.19-.24,5.41-1.35,5.4-2.74,0-.22-.09-1.15-2.71-2.18l-13.57-.12c1.03-1.22,1.74-2.1,2.49-2.93,2.4-2.66,3.51-5.67,2.79-9.29-.49-2.44-2.07-4.2-4.33-3.67-2.01.47-4.31,1.94-5.38,3.66-1.35,2.17.5,3.65,3.19,3.19-.22-1.46-.66-2.91-.5-4.29.05-.4,2.48-1.09,2.72-.79,1.05,1.37,2.53,3.15,2.34,4.58-.49,3.64-2.65,6.9-6.41,7.47-7.57,1.15-15.24,1.62-23.91,2.48,2.59-3.18,5.17-5.14,6-7.69.91-2.76.21-6.06.21-9.32-5.57,2.59-8.04,7.31-8.02,12.89,0,1.84-1.5,4.24-3.05,5.42-3.24,2.46-6.96,4.27-10.58,6.41-2.29-1.84-2.15-3.94-1.14-6.35,3.56-8.5,2.84-11.15-4.95-17.29-.8,4.1-1.95,7.91-2.14,11.77-.1,2.11.97,4.63,2.27,6.41,3.16,4.3,3.23,8.51-.28,12.46-3.42,3.85-7.54,6.55-12.55,7.65-1.67.37-3.48.06-6.31.06,1.39-1.89,2-2.92,2.8-3.76,6.29-6.63,9.25-14.63,9.96-23.63.52-6.53,1.52-12.66,7.4-17.22,5.54-4.31,10.89-4.59,17.07-2.17,2.69,1.05,5.7,1.29,8.55,1.95,2.23.51,4.44,1.12,6.67,1.65.95.23,2.06.78,2.85.49,3.5-1.3,6.91-2.84,10.17-4.83-5.42-2.64-10.45-4.86-15.71-.16-1.15,1.03-3.86.87-5.69.47-4.12-.89-8.15-2.23-12.18-3.5-.71-.22-1.69-.94-1.75-1.52-.07-.66.6-1.83,1.21-2.04,1.44-.5,3.18-1.09,4.52-.71,8.65,2.48,9.61,2.26,15.51-5.16-3.25-.4-6.05-.81-8.86-1.07-1.1-.1-2.44-.23-3.3.28-4.67,2.73-9.3,5.52-13.78,8.55-2.69,1.82-5.08,4.09-7.6,6.15l-1.08-.7c.16-1.1-.03-2.44.53-3.27,2.36-3.48,4.87-6.88,7.51-10.15.58-.72,1.97-1.11,2.98-1.1,5.07.04,6.77-1.1,8.74-6.51-3.88.07-7.43.05-9.72,3.98-.61,1.06-2.18,1.55-3.62,2.52.83-1.86,6.12-13.4,13.02-13.2,3.16.09,6.28,2.62,11.12,6.56,3.69,3,4.36,5.25,7.6,5.93,3.99.84,9.1,1.47,9.1,1.47.06-2.01-.17-5.23-2.23-7.97-2.71-3.6-7.3-4.62-11.95-5.65-7.02-1.56-9.72-.39-12.03-2.97-1.65-1.85-2.97-4.83-1.83-6.56,1.36-2.07,1.78-3.36,3.4-5.81,3.41-5.18,4.14-12.27,2.47-13.22-1.4-.79-4.94,2.44-6.91,5.22-3.96,5.58-3.5,11.99-3.16,14.59-5.11-1.58-7.05-5.74-4.84-9.7.74-1.33,1.15-2.64,1.25-3.95.14-1.74-.22-3.14-1.11-5.33-.95-2.32-2.31-5.38-4.23-8.95-1.2,1.35-5.01,5.86-5.57,11-.14,1.26-.2,2.73.49,4.32.57,1.33,1.55,2.48,2.95,3.44.6.41,1.27.92,1.57,1.54,2.36,4.87,4.63,9.77,7.18,15.2-7.96,6.4-12,16.32-15.99,26.27-.39.01-.79.02-1.18.04-.38-1.75-1.21-3.54-1.07-5.24.58-6.76-.85-9.55-7.34-12.99-.96,5.81-1.05,11.03,4.48,15.09,1.5,1.1,2.24,4.29,2.06,6.42-.68,8.19-1.85,16.34-2.92,24.49-.15,1.14-.74,2.23-1.47,4.33-3.4-6.53-9.62-10.64-7.6-18.33.26-.97.7-2.17,1.45-2.69,3.71-2.59,4.54-4.91,2.86-9.7-3.06,2.16-5.81,4.15-5.59,8.5.12,2.4-.44,4.83-.71,7.51-6.13-4.01-9.1-12.02-6.31-16.47.8-1.28,2.12-2.48,3.47-3.14,6.11-2.97,7.6-6.15,5.75-12.95-7.46,2.85-9.89,9.48-11.39,16.8-.5-.12-.99-.24-1.49-.36-.53-2.31-1.34-4.6-1.55-6.95-.41-4.57-.83-9.18-.59-13.75.24-4.58,4.23-8.06,8.81-8.03,1.51,0,3.17.98,4.41,1.96.45.36.22,2.71-.27,2.94-1.26.59-2.83.5-5.31.81,1.27.93,2.29,2.29,3.17,2.2,4.68-.44,4.78-4.24,4.99-7.78,4.11-.99,7.8-1.57,10.93,2.23.99,1.2,3.1,1.48,5.54,2.54-.62-1.51-.68-2.08-1-2.39-6.49-6.32-11.27-14.47-19.45-18.9-1.77-.96-4.63.09-7.24.22,2.5,5.03,4.52,9.07,6.9,13.86-6.42-.05-11.57,2.12-14.14,8.5-.38-.08-.76-.15-1.14-.23-.42-1.2-1.23-2.4-1.2-3.59.08-3.71-1.79-6.1-5.93-7.03-1,4.69-.06,6.71,3.52,9.32,2.53,1.85,4.4,4.14,4.45,7.75.08,5.09.76,10.18,1.27,16.26-1.91-.72-3.6-.82-4.3-1.71-4.05-5.17-9.2-5.23-14.88-3.83-4.11,1.02-4.96.37-4.46-3.9.27-2.24.82-5.27,2.36-6.4,5.54-4.07,4.58-9.38,4.07-14.93-6.37,3.42-7.79,6.62-6.89,13.18.31,2.27-.69,4.72-1.14,7.36-7-4.49-11.16-19.44-6.24-24.79,4.01-4.36,9.98-7.11,15.44-9.85,2.65-1.33,5.02,1.1,6.14,3.63,2.85,6.44,5.65,8.24,13.07,7.62-2.97-4.62-4.32-10.36-11.36-10.6-1.56-.05-3.06-1.79-5.76-3.5,3.75-2.35,6.47-4.4,9.49-5.79,1.12-.51,3.58.01,4.36.95,3.84,4.66,8.6,4.44,13.65,3.15,2.01-.51,3.95-1.31,5.95-1.99-3.11-6.96-9.95-9.4-16.21-6.39-1.68.81-3.96.36-5.97.49l-.7-1.2c1.78-1.89,3.22-4.51,5.4-5.54,3.17-1.49,3.55-2.23,4.75-3.76,3.04-3.83,2.82-10.19,1.01-10.97-1.3-.56-3.47,1.72-4.22,2.52-1.93,2.03-3.46,3.87-3.43,6.09.06,4.05-2.53,5.84-4.58,8.25l-1.14-.09c-.13-2.86.18-5.84-.52-8.55-.69-2.68-2.41-5.09-3.97-8.21-2.88,5.23-1.94,8.63,1.02,11.51,1.29,1.25,1.79,4.3,1.32,6.21-1.12,4.59-4.75,7.3-9.39,9.19.26-.94.22-2.28.84-2.75,5.9-4.45,3.67-9.79,1.94-15.91-3.78,4.75-6.94,8.7-5.32,14.89.55,2.12-.26,5.49-1.75,7.07-3.18,3.38-7.2,5.97-10.99,8.97-1.64-4.1.44-14.76,3.03-17.01.36-.32.84-.54,1.3-.72,4.66-1.85,5.46-3.2,5.3-9q-3.69.36-8.35,8.87c-1.04-2.7-2.96-4.89.43-7.18,1.03-.7,1.55-2.2,2.24-3.36,1.76-2.96,2.69-4.41,3.04-5.05,2.46-4.49,3.32-11.82,3.57-14.39-5.21,2.4-6.12,5.03-6.35,6.11-.2.99-.77,2.62-.2,5.74.73,4.01-1.5,6.77-4.77,9.52-1.7-2.68-2.66-5.18-2.41-7.71.14-1.41.83-2.02,1.36-3.87.76-2.66.62-5.05.37-6.69-.71-3.36-1.47-4.28-2.11-4.33-1.56-.13-4.13,4.73-3.23,9.16.39,1.89,1.32,3.29,2.04,4.16-.3.18-.6.37-.91.55-.85-.72-1.77-1.37-2.54-2.16-3.78-3.93-8.51-5.04-13.69-4.47-4.2.47-6.43,4.79-4.26,8.38.64,1.05,2.34,1.86,3.62,1.96.77.06,1.67-1.45,2.24-2-2.06-.85-3.53-1.46-5.01-2.06,1.12-1.43,2.01-3.22,3.44-4.17,1.06-.71,3.05-.85,4.27-.36,6.16,2.48,10.17,7.13,12.46,13.43-3.43-2.84-5.71-7.52-11.22-6.64-.4,4.67,2.57,7.58,6.98,7.86,1.71.11,4.13,1.67,4.78,3.19,1.2,2.8,1.33,6.06,1.9,9.13-.47.23-.93.46-1.4.7-1.76-1.75-4.03-3.22-5.17-5.31-3.45-6.34-5.69-7.83-12.82-7.34,1.54,6.33,5.22,9.8,11.48,10.81,3.03.49,5.76,3.46,5.98,6.78.16,2.44.03,4.91.03,7.36-.42.23-.85.47-1.27.7-3.81-3.8-7.51-7.72-11.48-11.34-1.57-1.43-3.61-2.68-5.64-3.18-2.18-.54-4.59-.12-7.74-.12,3.84,4.67,6.32,9.66,12.94,8.97,1.02-.11,2.31.27,3.14.88,4.59,3.4,8.17,7.62,9.67,13.29.17.63-.15,1.4-1.13,2.64-.79-.98-1.98-1.84-2.31-2.96-1.69-5.71-5.06-8.24-12.36-8.46,1.49,3,2.44,5.79,4.13,8.03,1.15,1.52,3.23,2.96,5.07,3.21,3.91.53,4.84,3.17,6.28,6.7-5.78-1.9-10.95-3.44-15.97-5.37-1.06-.41-1.62-2.2-2.33-3.41-1.33-2.25-2.4-4.68-3.94-6.77-1.24-1.68-2.98-2.99-4.54-4.43-.25-.23-.64-.35-.99-.43-3.75-.78-9.34,3.21-10.15,6.98-.42,1.94-1.35,3.76-2.68,5.47-.89-6.61-1.36-13.1,1.49-19.24.83-1.78,2.15-3.04,4.76-2.59,2.79.48,4.8-2.45,5.87-7.75-8.02-.47-9.21,7.47-14.17,11.33-1.81-3.82-4.13-7.44-5.19-11.4-.63-2.34.27-5.42,1.31-7.8,1-2.3,3.38-2.4,5.33-.74.52.44.91,1.99.62,2.27-.83.82-2.04,1.25-3.72,2.18,1.18.6,2.53,1.72,2.97,1.43,1.11-.72,2.69-2.28,2.5-3.14-.46-1.99-1.43-4.51-3-5.39-1.34-.75-4.28-.14-5.65.95-3.03,2.39-3.9,5.97-3.08,9.82.25,1.19.62,2.36.94,3.59-5.06.21-8.47-3.11-9.24-7.45-.74-4.12-2.93-5.56-4.06-6.58-1.47-1.33-4.16-2.7-9.48-2.18.12,1.93.6,4.6,2.56,6,1.53,1.1,2.89.65,4.72,1.05,3.92.85,5.02,4.51,8.92,9.44,5.78,7.31,8.09,5.1,10.56,10.4,1.88,4.03,2.31,8.74,1.28,14.18-.13.67-.45,1.3-.68,1.94-.43.05-.86.11-1.29.16-.67-2.85-2.05-5.75-1.85-8.53.33-4.44-1.79-6.95-4.9-9.43-1.56,4.55-.81,7.58,2.45,10.51,2.17,1.95,2.59,3.7,1.42,7.75-3.58-2.77-7.01-5.29-10.23-8.06-.6-.52-.56-2.08-.42-3.11.57-4.08-1.26-7.07-6-8.91-.2,4.12-.48,7.95,3.57,10.67-3.39.74-10.48-3.24-12.73-6.87-2.13-3.45-2-8.37.68-11.17.85-.9,2.6-1.42,3.85-1.28.73.08,1.99,2.07,1.74,2.73-.38,1.02-1.84,1.65-3.28,2.79.69.38,1.87,1.51,2.45,1.26,1.09-.48,2.71-1.95,2.55-2.65-.5-2.16-1.26-4.75-2.84-5.98-1.08-.84-4.12-.29-5.57.7-4.12,2.82-5.29,9.01-3.12,13.85.6,1.32,1.3,2.6,2.3,4.61-5.65-.39-10.67-.71-15.69-1.11-.55-.04-1.26-.44-1.56-.9-3.57-5.54-8.53-3.76-13.38-2.62-.46.11-.89.32-1.33.49-.74.02-1.24.23-1.55.39-.37.2-.71.55-1.96,2.27-.29.4-.57.83-.84,1.27,2.61,1.12,4.66,1.98,6.67,2.89,3.91,1.77,7.83,2.43,11.89.41.64-.32,1.47-.5,2.17-.41,9.74,1.16,19.54,2.01,29.18,3.73,5.28.94,9.4,4.62,12.84,8.71-.21.42-.41.83-.62,1.25-2.09-.96-4.82-1.39-6.14-2.99-4.55-5.52-9.5-4.03-14.8-1.76,3.63,5.03,8.02,6.73,13.72,5.39,3.87-.91,8.28,1.44,9.67,5.8-2.15-.14-4.04-.17-5.9-.42-3.05-.4-5.86-.65-8.02,2.4-1.04,1.47-2.68,2.63-4.63.5-3.48-3.82-7.44-4.02-11.33-.58-1.36,1.21-2.33,2.87-3.73,4.65-1.95-4.8-.69-9.6,2.44-11.82,2.87-2.03,2.97-7.35-.5-12.48-2.1,4.05-3.92,7.58-5.75,11.11-.39-.54-1.25-1.82-2.2-3.03-2.8-3.61-8.08-5.36-12.41-4.18-2.56.7-4.15,2.67-3.35,4.95.62,1.76,2.68,3.73,4.46,4.18,2.24.56,3.49-1.21,2.79-3.24-1.75.24-3.23.63-4.66.5-.31-.03-.97-2.51-.57-2.86,1.15-1.03,3.02-2.43,4.11-2.09,2.58.82,5.77,1.96,7.13,4.02,6.03,9.14,4.11,19.13,2.63,30.01-3.61-2.89-5.83-5.46-4.72-9.16.98-3.27-.24-5.55-2.04-7.89-1.35-1.76-2.67-3.54-3.99-5.31-2.43,2.14-3.11,5.93-1.09,9.8,1.67,3.2,3.87,6.13,5.83,9.18-.29.34-.57.67-.86,1.01-2.28-1.06-4.68-1.93-6.81-3.24-2.74-1.68-5.4-3.55-7.86-5.63-1.72-1.46-3.3-3.23-4.5-5.13-1.41-2.23-5.28-4.82-9.98-5-1.21-.05-4.14.04-7.52,2.24,2.31,2.27,4.16,4.69,6.57,6.24,2.38,1.54,5.32,2.94,8.07,3.03,5.77.2,8.97,1.59,12.44,7.43-2.71.95-5.28,2.54-7.92,2.65-5.96.26-8.04,4.45-10.54,8.66,6.32,2.62,11.2.48,13.84-5.57.43-.98,1.69-1.92,2.75-2.24,5.14-1.54,10.24-1.16,14.64,1.97,1.57,1.12,2.49,3.43,3.23,5.38,1.4,3.7,2.39,7.55,3.7,11.29.6,1.71,1.54,3.31,2.68,5.69-3.96-.34-5.9-2.41-7.06-4.9-2.6-5.57-6.73-7.96-13.76-7.13,2.99,4.84,4.84,10.4,12.03,10.29,1.31-.02,2.65,1.67,3.78,3.23-5.22.85-10.28,2.32-15.27.5-1.35-.49-2.71-2.57-2.99-4.11-.73-3.98-3.56-6.36-8.68-6.03,1.5,3.27,1.48,6.97,6.03,8.19,1.68.45,3.17,2.69,4.01,4.47.23.49-2.03,2.54-3.45,3.36-4.18,2.41-8.78,2.55-13.43,1.76-.65-.11-1.29-.4-1.97-.89-2.6-1.89-3.12-5.97-2.34-6.39.56-.3,1.36,1.46,3.67,2.56,2.18,1.04,4.46.91,6.22.56.05-.77.11-3.36-1.67-5.33-2.25-2.5-6.56-3.02-10.33-.89-.07-2.37-.15-4.74-.22-7.11.33.12,2.42.89,4.22-.22,2.27-1.4,2.77-4.95,1.67-5.89-1.18-1-4.3.87-4.89,1.22-.33.2-1.38.85-2.56,2.11-2.34,2.51-1.91,3.95-3.22,4.56-2.08.97-3.89-2.32-7.11-1.89-2.86.38-5.42,3.45-4.89,4.78.75,1.87,7.73.58,8.44.44,3.57-2.11,5.01-1.96,5.67-1.44,1.01.79.12,2.4,1,5.67.58,2.18,1.58,3.72,2.37,4.94,1.34,2.07,2.06,3.24,3.47,4.12,2.89,1.8,6.55,1.4,10.29.77.57-.1,1.14-.27,2.68-.64-2.43,5.31-10.44,6.21-8.48,13.1,5.04-.36,6.63-1.87,7.41-7.07.09-.6.25-1.23.55-1.75,3.2-5.63,15.15-10.51,23-8.75-5.6,2.16-7.87,7.96-13.94,8.25-1.2.06-2.87,1.42-3.4,2.6-1.83,4.09-3.25,8.37-4.82,12.58.4.21.79.42,1.19.62,3.08-1.57,6.16-3.14,9.52-4.85.38,1,.88,1.83,1.02,2.72.82,5.02,4.21,7.65,8.49,9.64,2.35,1.09,4.66,2.36,6.77,3.86,3.19,2.26,3.09,5.51,2.48,9.38-7.23-5.86-11.98-15.39-22.98-12.4,2.05,2.36,3.79,4.96,6.12,6.81,1.44,1.15,3.78,1.16,5.72,1.68,1.85.49,4.33.38,5.42,1.57,3.68,3.96,6.86,8.39,10.25,12.66-5.84,1.83-9.93,1.12-13.18-6.83-1.52-3.73-6.69-5.91-13.58-5.08,3.29,4.68,4.87,10.49,12.16,10.14,1.09-.05,2.26,1.43,3.09,2.81-5.57.81-11.22.75-15.38-2.41-2.25-1.7-3.63-6.55-3.08-9.56,1.34-7.37-3.33-9.97-8.08-13.15-1.96,6.69-.47,10.37,4.75,15,1.67,1.48,2.08,4.37,3.07,6.61-.48.44-.97.89-1.45,1.33-2.96-1.78-6.18-3.26-8.78-5.47-1.69-1.44-2.68-3.8-1.11-6.41,2.17-3.59,1.01-7.01-3.11-9.67-3.44,4.47-1.43,8.97-.17,13.61-3.25-5.27-8-9.69-8.53-16.1-.17-2.1,1.19-4.49,2.35-6.45.45-.77,2.74-1.37,3.36-.92.98.72,1.56,2.37,1.66,3.68.04.46-1.84,1.07-3.34,1.88.77.5,1.66,1.52,2.29,1.38,1.08-.24,2.38-.99,2.9-1.91,1.82-3.22-.64-7.17-4.36-7.16-3.34,0-5.69,1.61-6.79,4.84-.43,1.26-.75,2.56-1.22,4.17-3.09-2.52-5.28-5.15-4.72-9.01.09-.63.11-1.5-.11-2.8-.44-2.58-1.73-4.35-2.51-5.41-2.77-3.72-6.65-5.61-8.46-6.37-.5.6-1.68,2.18-1.93,4.53-.31,2.94,1.04,5.08,1.44,5.67,6.86,8.42,13.49,16.56,20.08,24.7.53.65.83,1.49,1.24,2.23-.32.34-.63.68-.95,1.02-1.79-1.67-4.49-3.03-5.18-5.07-1.3-3.85-4.03-5.05-7.33-5.89-1.66-.42-2.05-.16-4.05-.48-2.2-.35-3.93-.96-5.02-1.41-.42,2.05-.13,3.59.11,4.44.6,2.11,1.53,4.04,4.8,6.08,1.66,1.03,2.87,3.12,6.37,2.4,5.97-1.23,9.32,3.31,13.74,5.38.78.37,1.1,1.72,2.35,3.84-9.01-2.57-15.36.38-21.22,6.51-.46.75-.92,1.5-1.38,2.24,3.5.51,6.42.56,8.5.51,4.14-.1,6.17-.32,8.23-1.43,1.55-.83,2.96-2.05,4.23-3.74,1-1.34,3.57-2.45,5.19-2.21,7.54,1.15,14.99,2.82,22.5,4.87-3,3.84-5.12,8.17-10.72,7.69-3.58-.31-6.93,1.38-10.85.23-3.57-1.05-8.76,4.96-10.63,11.04,2.22,0,4.22-.19,6.17.04,5.05.59,8.34-1.27,10.06-6.21.33-.95,2.1-1.39,3.21-2.07.39.39.79.78,1.18,1.17-1.9,3.4-3.81,6.79-5.69,10.19-1.32,2.38-2.63,4.36-5.72,5.2-1.72.47-2.41,1.14-2.77,1.42,0,0,0,0,0,0-.07.06-.13.11-.13.11-.03.02-2.42,2.31-2.74,7.38-.21,3.36.61,6.13,1.33,7.91,1.03.03,2.77-.05,4.59-.94,1.81-.88,2.47-2.35,4.6-4.38,2.8-2.67,3.89-5.68,2.2-9.45-.42-.94-.69-2.27-.37-3.19,1.82-5.21,4.46-9.93,8.65-13.59.55.18,1.1.37,1.66.55-.88,3.46-2.11,6.89-2.53,10.41-.31,2.57.12,5.36.86,7.86.58,1.94,2.15,3.58,3.33,5.44,4-5.34,4.22-11.02,1.2-16.41-.84-1.5-1.3-3.61-1.02-5.28,1.48-8.81,13.18-16.29,22.55-13.65-1.96,1.31-3.24,2.69-4.78,3.12-6.48,1.84-10.01,6.02-10.49,13.3,5.56-2.06,11.29-3.29,12.89-10.32.68-3,5.62-5.22,9.53-4.98-1.12,7.4-6.53,13.94-13.97,15.25-1.83.32-3.76,2.26-4.87,3.96-1.64,2.51-2.58,5.48-3.38,8.57,5.51-1.75,11.3-2.67,12.77-9.7.35-1.67,2.34-3,3.58-4.49.39.26.79.51,1.18.77-.36,1.36-.51,2.83-1.12,4.07-2.92,5.95-4.49,12.72-10.62,16.73-1.05.69-1.65,2.92-1.54,4.37.27,3.58,1.08,7.13,1.67,10.68.38-.01.77-.02,1.15-.03,2.44-2.93,5.19-5.67,7.16-8.89.82-1.35.43-3.9-.22-5.59-.95-2.44-.82-4.42.28-6.75,2.4-5.13,4.51-10.39,7.1-16.44,1.22,4.94,3.86,8.69,2.51,13.52-.91,3.26,1.02,5.77,3.35,7.83,1.55,1.37,3.25,2.56,5.68,4.44-.23-6.7.98-12.52-4.87-16.71-4.12-2.96-5.11-11.89-1.47-17.54.62,2.07,1.8,4.16,1.72,6.2-.13,3.17.88,5.26,3.5,6.85,2.19,1.32,4.28,2.79,6.44,4.21,2.89-5.44.79-11.21-4.26-13.4-1.72-.75-3.69-1.84-4.6-3.35-1.47-2.45-.12-4.56,2.32-5.8,5.84-2.98,12.13-4.72,18.39-2.5,8.3,2.94,16.55,6.29,24.3,10.43,8.92,4.76,11.04,12.72,7,21.97-.9,2.05-1.86,4.09-2.92,6.06-3.5,6.49-3.86,13.25-2.28,20.35,1.67,7.48-.88,12.61-7.05,17-8.43,6-17.88,7.47-27.88,8.04-17.1.97-14.57,1.93-22.41,3.22,0,0-1.73.28-8.94.53-.34.01-1.1.12-2-.17-.78-.25-1.7-.69-2.67-1.13.56,1.33,1.15,2.84,1.95,3.64,2.66,2.64,10.03,2.6,13.47,2.7,3.47.1,7.08-.27,10.6-.13.94-.53,1.9-.93,2.86-1.21,0,0,.74-.22,1.5-.35,3.15-.55,6.65.35,6.65.35,4.78,1.23,13.85,2.3,19.43,1.79,3.57-.33,7.22-1.06,11.02-2.27-1.14,1.93-1.71,3.6-2.02,4.75-.45,1.67-.76,3.75-1.6,6.14-.18.52-.51,1.63-1.53,2.51-.33.28-.66.54-1,.79-1.47,1.24-2.96,2.49-4.45,3.73-.9.75-1.8,1.5-2.7,2.24-1.14,3.39-1.19,5.54-.15,6.47,2.2,1.95,9.25-1.57,21.16-10.56.52-1.12,1.04-2.23,1.56-3.35-.12.02-.23.02-.29-.04-.7-.7,3.62-9.45,10.2-10.68,2.79-.52,5.45-.28,9.11,2.41,3.25,2.39,6.73,4.47,10.79,7.15-.27.03-.54.07-.8.1,1.28.46,2.6.83,4.06,1.02,3.81.51,7.75.3,11.59.34,5.32.05,10.66.1,15.95-.32,1.53-.61,3.07-1.23,4.6-1.84l-10.52-5.74c-3.32.41-6.73-.54-11.27-3.17,7.29-3.11,14.23-1.48,21.08-1.29-.12.08-.24.15-.36.23,6.69-.08,13.44.46,20.13.29,4.71-.02,10.14-.31,10.35-1.66.22-1.38-5.09-3.41-13.04-5.92-31.79-10.02-37-7.77-45.56-13.65-9.64-6.62-13.46-21.09-8.23-31.46,3.01-5.96,4.79-11.87,4.31-18.63-.37-5.24,5.19-10.7,12.03-12.62,1.31-.37,2.69-.59,4.04-.71,5.89-.52,8.28,2.33,5.58,7.7-3.22,6.39-.1,10.56,3.94,15.64,1.72-6.25,3.94-11.52-.69-16.69-.9-1.01-.62-3.08-.88-4.66.41-.22.82-.43,1.23-.65,2.19,1.9,5.1,3.39,6.43,5.77,3.17,5.64,7.87,7.2,13.76,6.93,1.71-.08,3.43-.01,5.2-.01-1.57-7.84-6.93-11.22-14.69-10.75-2.95.18-6.03-1.94-8.99-2.98.35-1.21.35-1.59.5-1.66,6.58-3.18,12.05-7.76,17.2-12.92,1.75-1.75,4.85-2.54,7.46-2.9,1.6-.23,3.93.72,5.02,1.96,1.54,1.74,2.03,4.07.28,6.5-2.1,2.91-.83,6.64,3.12,9.76,1.36-3.32,2.74-6.24.64-9.87-1.08-1.87-1.14-4.33-1.89-7.47,3.32.44,5.65.52,7.85,1.1,2.36.62,3.16,5.05,1.75,8.5-1.79,4.37-.77,7.9,3.52,11.25,1.15-4,2.14-7.62-.35-11.44-.79-1.21-.95-2.98-.98-4.5-.04-2.28,1.2-2.97,3.47-2.38,6.25,1.62,12.55,8.48,13.13,14.92.12,1.36-.74,2.99-1.59,4.17-.3.41-2.7.09-2.84-.33-.45-1.4-.32-2.98-.44-5.03-.64.22-2.36.29-2.79,1.07-.52.96-.46,3.08.23,3.68,1.54,1.34,3.84,3.09,5.43,2.75,1.81-.38,4.39-2.76,4.5-4.42.21-3.16-1-6.45-1.82-9.64-.29-1.12-1.17-2.08-1.43-4.28,2.8.32,6.36-.33,8.24,1.16,0,0,2.61,1.26,6.48,3.01,4.86,2.2,15.52-1.36,15.63-4.62.08-2.48-5.92-5.24-11.14-5.56-2.63-.16-3.65-.46-8.34,1.38-5.04,1.97-11.15,1.85-16.74,1.55-3.89-.21-7.68-2.26-11.51-3.48.07-.42.13-.85.2-1.27,2.21-1.52,4.41-3.04,6.74-4.65-4.27-3.04-8.15-2.56-11.12,1.06-1.85,2.26-8.08,2.37-11.91.09.37-.48.63-1.21,1.07-1.34,7.36-2.1,14.66-4.62,22.16-5.99,5.18-.95,6.39.52,8.24,5.57.92,2.51,4.59,4.09,9.22,3.82-3.64-3.08-3.91-5.18-3.74-6.34.83-5.62,15.48-10.33,20.98-6.18Zm-192.29,39.24c.83.09,1.95,1.05,2.17,1.85.15.53-1.09,2.07-1.65,2.04-.97-.04-1.9-.96-3.59-1.95,1.5-1.01,2.35-2.02,3.07-1.94Zm122.34.05c.73.06,1.37,1.27,2.05,1.96-.76.68-1.47,1.81-2.3,1.91-.72.08-1.58-1-3-2.02,1.55-.95,2.45-1.93,3.25-1.86Zm-6.99-79.97c2.46,1.94,3.1,4.71.81,7.72-2.13,2.79-4.58,5.33-6.89,7.98-.49-.22-.97-.45-1.46-.67.73-2.4,1.15-4.97,2.28-7.16,1.45-2.79,3.49-5.28,5.26-7.87Zm-62.08-49.31c-1.6,1.95-2.83,4.59-4.88,5.7-3.91,2.1-3.58,5.47-4.18,8.91,4.85-.98,6.35-3.17,6.87-7.51.23-1.87,1.87-3.99,3.48-5.12.89-.62,3.16.38,4.61,1.07,1.54.73,2.85,1.96,4.26,2.97-.08.61-.17,1.21-.25,1.82-7.69-.8-9.04,4.09-9.87,9.52-.16,1.07-.5,2.43-1.25,3.06-5.73,4.75-2.56,9.85-.84,15.94,3.13-5.39,6.89-9.35,3.9-15.62-2.13-4.46,2.42-10.6,7.17-9.97,1.75.23,4.1,1.75,4.76,3.28,1.69,3.98,2.01,8.3-.62,12.18-2.23,3.3-4.44,6.64-7.03,9.65-5.48,6.35-12.77,11.37-13.88,20.7-6.48-3.25-8.19-12.66-3.67-17.26.66-.67,1.76-1.49,2.51-1.36,1.16.2,2.2,1.16,3.28,1.8-.84,1.15-1.68,2.3-2.59,3.53,1.56,1.42,3.89.82,4.04-1.8.09-1.55-.52-3.61-1.59-4.64-.91-.88-3.04-1.09-4.43-.75-3.48.84-4.58,3.92-5.43,7-.36,1.28-.54,2.62-1,4.89-4.23-6.52-5.21-12.58-3.04-19.04.91-2.7,2.27-5.26,3.5-7.85,1.35-2.86,1.68-5.58.1-8.57-1.71-3.25.33-11.84,3.01-13.93,2.9-2.28,8.71-1.83,13.08,1.41Zm-30.85-7.54c5.2-1.4,8.18-4.33,10.05-9.64,1.41,5.39,4.45,9.11,10.39,11.62-6.58,2.68-6.98,7.43-7.76,12.2-.37,2.26-2.4,4.23-2.86,6.5-.72,3.53-.86,7.2-1.05,10.82-.16,3.07-.03,6.15-.64,9.32-5.05-4.68-8.52-10.21-10.11-16.42-1.49-5.84-2.03-12.03-2.08-18.07-.02-2.19,2.2-5.84,4.06-6.34Zm-46.08,44.68c-1.11-9.18-.67-18.28,3.55-26.7,1.15-2.29,3.47-4.05,5.47-5.8.72-.63,2.25-.92,3.14-.61,1.05.37,2.2,1.43,2.55,2.45.23.67-.74,2.44-1.4,2.57-.88.17-1.98-.77-3.22-1.34-.8,3.22.45,4.01,6.17,3.19.92,5.52,2.34,10.88,10.43,10.17-2.46-3.55-1.64-8.87-7.46-9.53-.63-.07-1.1-1.61-1.65-2.48,1.55-.57,3.85-2.09,4.52-1.56,5.37,4.26,8.91-.09,12.94-2.3.31-.17.69-.2.7-.21,2.33,7.62,4.63,15.16,6.9,22.61-2.87.18-4.99-1.52-5.3-4.61-.44-4.39-2.33-6.14-7.19-6.66-.29,4.1,1.73,6.97,4.98,8.81,6.28,3.56,12.05,7.8,13.01,15.8,1.09,9.1,7.16,15.44,12.08,22.45,1.14,1.62,1.98,3.45,2.96,5.19-.34.28-.69.56-1.03.84-2.35-1.69-5.64-2.89-6.85-5.19-2.68-5.08-6.81-5.2-11.4-4.96-.87.04-1.72.24-2.6.36,2.51,5.58,6.7,8.27,12.33,8.01,4.51-.21,6.42,3.4,8.56,6.33,1.06,1.45,1.21,3.57,1.78,5.38-1.97-.29-4.13-.16-5.89-.94-5.42-2.42-10.68-5.22-16.03-7.8-.75-.36-1.7-.31-2.55-.49-1.95-.41-5.53-.75-5.57-1.29-.16-2.76-.07-5.92,1.15-8.31,3.08-6,3.11-8.79-1.65-15.29-2.02,5.23-5.8,9.6-1.73,15.47,1.01,1.46.15,4.22.15,6.38-.38.04-.76.07-1.13.11-.33-.45-.88-.87-.97-1.36-.97-5.52-2.33-11.02-2.65-16.58-.34-5.92,3.34-10.49,8.88-12.56.69-.26,1.58-.67,2.14-.44,1.27.52,2.77,1.15,3.43,2.21.45.72-.06,2.99-.67,3.23-1.09.43-2.57-.15-3.92-.3-.41,2.55.89,3.8,3.46,2.78,2.65-1.05,3.3-3.16,2.9-5.8-.39-2.5-1.88-3.81-4.33-3.76-5.57.13-9.57,3.08-12.72,7.43-.5.69-.92,1.45-1.39,2.16-.04.07-.22.04-1.13.19-.21-3.17-1.09-6.42-.5-9.38,1.24-6.16-.18-10.36-5.98-13.77-.87,5.57-3.06,11.12,2.76,15.4.35.26.57.82.68,1.29,2.33,9.95,4.66,19.91,6.93,29.88.18.77-.04,1.63-.1,2.89-3.1-1.69-4.74-3.5-4.13-6.95,1.25-7-.92-10.12-8.49-12.25.33,3.32.42,6.56,1.07,9.67.29,1.4,1.65,2.61,2.64,3.81,1.56,1.89,3.23,3.71,4.85,5.55-.39.46-.79.91-1.18,1.37-1.72-1.14-3.83-1.95-5.09-3.48-6.87-8.33-7.48-18.49-7.78-28.66-.03-.88.56-1.97,1.2-2.65,3.3-3.5,3.2-7.36,1.48-11.47-1.05-2.51-2.14-5-3.23-7.53-6.37,3.91-7.72,11.6-4.32,17.38,1.68,2.87,1.36,6.93,1.47,10.58-3.8-2.02-5.55-5.24-6-8.98Zm7.96,67.47c-3.95-5.89-2.04-10.85,4.73-12.32,5.49-1.2,6.67-6.1,9.01-10l-.53-1.11c-2.93.95-6.3,1.31-8.67,3.04-2.27,1.66-3.5,4.74-5.83,8.13-.84-4.73-2.26-8.87-2.15-12.98.2-7.07-1.03-10.01-8.13-13.53.16,5.94-1.09,11.43,4.83,15.19,2.37,1.51,2.25,4.72,1.29,7.58-2.77.14-4.17-1.37-4.52-3.62-.55-3.58-2.98-4.87-5.98-5.83-5.41-1.74-6.02-3.11-3.96-8.21.46-1.14.74-2.37,1.01-3.58,1.06-4.74,4.94-8.32,10.07-9.11,4.49-.69,6.83,2.32,8.91,5.53,1.14,1.77,2.09,3.7,2.92,5.64,2.74,6.39,7.44,9.49,14.42,8.86,8.94-.81,17.39.64,25.05,5.55,1.95,1.25,3.72,2.78,6.16,4.62-3.48,1.4-5.62.44-7.9-.93-2.69-1.6-5.6-2.83-8.43-4.19-.78-.38-1.66-.56-2.38-1.03-5.13-3.31-7.87-2.57-11.01,3.2,3.23,2.36,6.31,1.87,9.53-.11,3.15-1.93,5.53-1.33,8.25,2.17-2.03.3-3.82.43-5.53.85-3.25.81-6.45,1.83-9.69,2.7-1.3.35-2.65.82-3.96.76-6.73-.28-9.54,1.41-12.63,7.86,6.08,1.49,10.67-.17,14.35-4.78,1.07-1.33,2.87-2.08,4.92-2.61-2.08,4.39-6.29,8.07-1.66,12.76-7.76,6.8-17.88,6.41-22.52-.53Zm68.52,14.66c-3.92-2.03-7.32-3.72-10.66-5.53-7.66-4.14-15.97-6.2-24.48-7.52-2.34-.36-4.16-.64-3.54-3.8.17-.88-.78-1.98-1.35-3.29-.97,2.05-1.27,3.6-2.2,4.3-.5.37-2.83-.5-3.02-1.18-.38-1.33-.33-3.24.4-4.36,4.07-6.3,9.42-8.01,17.93-6,5.18,1.22,10.34,2.55,15.5,3.86,4.47,1.13,7.22,4.42,7.22,8.79-3.51.11-6.7-.06-9.49-2.95-1.12-1.16-3.64-1.62-5.38-1.39-2.73.37-5.35,1.61-8.83,2.75,5.49,3.44,9.74,6.22,15.91,3.55,2.15-.93,6.29.52,8.39,2.26,2.71,2.24,4.3,5.86,3.62,10.5Zm24.68-44.75c5.41-.97,7.01-2.83,7.34-9.13-4.19,2.33-9.29,2.48-10.74,8.3-.45,1.82-2.39,3.28-4.11,4.67.59-5.04-.48-10.44,4.17-14.24,3.87-3.17,1.9-7.21,1.93-11.21-5.63,2.64-6.43,4.7-5.96,9.95.27,3.01-.87,6.14-1.52,10.08-2.98-2.93-4.65-4.98-4.12-8.29.57-3.53-1.69-6.29-6.05-7.45.24,3.62-.42,6.93,3.43,9.48,4.92,3.25,5.73,11.32,2.08,15.06-12.18-9.26-13.28-27.22-2.34-37.69,2.25-2.15,4.46-4.37,6.51-6.71,3.78-4.32,7.66-8.64,6.9-15.69,1.48.8,2.41,1.27,3.31,1.8,3.18,1.86,6.3,1.4,9.69.36,2.63-.81,5.55-.65,8.45-.39-1.28,3.41-3.07,5.45-6.54,5.49-7.54.09-9.57,1.8-11.54,9.76,5.49-1.58,11.55-1.06,14.52-7.63.9-1.98,3.69-3.1,5.98-4.89,1.8,3.06,3.32,5.73,4.93,8.34.98,1.59,1.9,3.31,3.22,4.59,3.95,3.82,5.11,7.48.86,12.01-1.02,1.09-.68,3.52-.81,5.35-.12,1.62-.02,3.26-.02,4.9-.52.09-1.04.19-1.56.28-1.94-5.55-3.91-11.08-5.78-16.65-.21-.61.07-1.49.35-2.15,1.99-4.76,1.67-6.38-3.1-11.05-.36,4.44-.64,7.98-.95,11.86-3.65-2.39-8.25-3.93-13.38-2.77-2.52.57-4.25,2.22-3.73,4.73.33,1.59,1.79,3.58,3.23,4.15,2.44.97,3.98-.38,3.66-3.01-1.57.28-3.15,1.01-4.32.59-.7-.25-1.41-2.7-.95-3.45.63-1.04,2.42-2.08,3.6-1.97,4.79.46,9.43,1.8,12.4,5.97,3.51,4.93,5.98,10.37,6.53,16.51.11,1.23.23,2.64-.25,3.68-.52,1.12-1.61,2.33-2.72,2.69-.6.19-2.1-1.14-2.55-2.09-.66-1.4-1.22-3.16-.99-4.63.85-5.37-1.82-8.44-6.18-10.71-1.43,5.07-.41,8.62,3.25,11.54,4.11,3.28,4.15,7.43-.44,9.83-5.26,2.75-10.85,4.9-16.38,7.1-1.4.56-3.1.32-4.66.45-.44-4.41,1.47-7.01,5.35-7.7Zm9.79,15.27c-1.83,5.47-4.68,10.29.11,15.51,2.07,2.26,1.29,5.19-.81,7.48-.5.54-1.12.99-1.73,1.41-6.63,4.6-7.76,4.09-9.01-3.73-.75-4.68-1.77-9.31-2.51-13.99-.68-4.34.39-5.74,4.34-7.5,8.52-3.79,16.88-7.93,25.46-11.57,3.54-1.5,7.47-2.06,11.27-3.06,1.08,2.75-.5,6.51,3.44,5.73-.13-1.7-.59-3.24-.21-4.54.16-.55,2.77-1.13,3.06-.76.98,1.24,2.22,3.15,1.88,4.38-.7,2.53-1.82,5.49-3.76,7.03-4.1,3.24-8.83,5.68-13.1,8.34,1.02-4.05,1.88-7.49,2.92-11.6-5.59,1.84-7.06,4.56-6.17,9.1.2,1.01.17,2.47-.42,3.15-3.41,3.97-7.01,7.77-11.37,11.39,3.36-6.63,1.13-11.68-3.38-16.78Zm83.28-2.51c-.37.66-1.33,1.34-2.05,1.37-3.57.14-7.15.06-11.07.06-.65-3.87.9-7.41,3.68-9.8,3.45-2.97,2.64-6.26,2.58-9.85-3.95.88-6.59,4.32-6,7.4.95,5.01-2.68,12.41-7.79,13.58-13.25,3.04-24.23,9.76-34.54,18.4-6.94,5.81-12.35,6.21-24.48,4.95.59-4.79,5.17-7.1,9.87-4.97,4.54,2.06,7.08,1.29,9.66-2.92-4.5-1.71-8.98-2.69-13.59.25.31-.59.46-1.39.94-1.74,4.82-3.51,9.56-7.19,14.65-10.26,1.56-.94,4.51-.91,6.19-.06,5.39,2.74,10.3,2.39,15.09-2.1-1.82-.55-3.47-.97-5.06-1.57-1.46-.55-2.85-1.3-5.36-2.47,5.1-2.55,9.09-5.83,13.44-6.41,6.24-.83,8.52-4.68,10.86-9.34-6.1-1.91-9.23-.43-11.96,4.72-2.01,3.78-5.83,5.4-9.47,6.69-1.4-4.06-2.7-7.8-3.93-11.36,5.05-3.17,10.45-6.91,16.21-9.96,1.87-.99,5.06-.96,7.01-.05,5.92,2.78,9.4,2.36,13.87-2.92-5.36-1.72-10.49-4.38-15.82,0-.57.47-1.98-.07-3-.14.26-.87.25-2.11.84-2.55,2.87-2.17,5.84-4.2,8.9-6.09.71-.44,2.05-.43,2.85-.07,3.75,1.66,7.93,2.9,10.95,5.47,2.66,2.27,5.14,2.48,8.1,2.42.96-.02,1.93.14,3.77.28-1.07,1.8-1.71,2.96-2.43,4.08-1.82,2.82-1.97,5.55-.77,8.83,2.05,5.59.67,11.03-2.17,16.09Z"/>
  <path class="cls-1" d="m95.59,89.18c-.8,3.22.45,4.01,6.17,3.19.92,5.52,2.34,10.88,10.43,10.17-2.46-3.55-1.64-8.87-7.46-9.53-.63-.07-1.1-1.62-1.65-2.48,1.55-.57,3.85-2.09,4.52-1.56,5.37,4.26,8.91-.09,12.94-2.3.31-.17.69-.2.7-.21,2.33,7.62,4.63,15.16,6.9,22.61-2.87.18-4.99-1.52-5.3-4.61-.44-4.39-2.33-6.14-7.19-6.66-.29,4.1,1.73,6.97,4.98,8.81,6.28,3.56,12.05,7.8,13.01,15.8,1.09,9.1,7.16,15.44,12.08,22.45,1.14,1.62,1.98,3.45,2.96,5.19-.34.28-.69.56-1.03.84-2.35-1.69-5.64-2.89-6.85-5.19-2.68-5.08-6.81-5.2-11.4-4.96-.87.04-1.72.24-2.6.36,2.51,5.58,6.7,8.27,12.33,8.01,4.51-.21,6.42,3.4,8.56,6.33,1.06,1.45,1.21,3.57,1.78,5.38-1.97-.29-4.13-.16-5.89-.94-5.42-2.42-10.68-5.22-16.03-7.8-.75-.36-1.7-.31-2.55-.49-1.95-.41-5.53-.75-5.57-1.29-.16-2.76-.07-5.92,1.15-8.31,3.08-6,3.11-8.79-1.65-15.29-2.02,5.23-5.8,9.6-1.73,15.47,1.01,1.46.15,4.22.15,6.38-.38.04-.76.07-1.13.11-.33-.45-.88-.87-.97-1.36-.97-5.52-2.33-11.02-2.65-16.58-.34-5.92,3.34-10.49,8.88-12.56.69-.26,1.58-.67,2.14-.44,1.27.52,2.77,1.15,3.43,2.21.45.72-.06,2.99-.67,3.23-1.09.43-2.57-.15-3.92-.3-.41,2.55.89,3.8,3.46,2.78,2.65-1.05,3.3-3.16,2.9-5.8-.39-2.5-1.88-3.81-4.33-3.76-5.57.13-9.57,3.08-12.72,7.43-.5.69-.92,1.45-1.39,2.16-.04.07-.22.04-1.13.19-.21-3.17-1.09-6.42-.5-9.38,1.24-6.16-.18-10.36-5.98-13.77-.87,5.57-3.06,11.12,2.76,15.4.35.26.57.82.68,1.29,2.33,9.95,4.66,19.91,6.93,29.88.18.77-.04,1.63-.1,2.89-3.1-1.69-4.74-3.5-4.13-6.95,1.25-7-.92-10.12-8.49-12.25.33,3.32.42,6.56,1.07,9.67.29,1.4,1.65,2.61,2.64,3.81,1.56,1.89,3.23,3.71,4.85,5.55-.39.46-.79.91-1.18,1.37-1.72-1.14-3.83-1.95-5.09-3.48-6.87-8.33-7.48-18.49-7.78-28.66-.03-.88.56-1.97,1.2-2.65,3.3-3.5,3.2-7.36,1.48-11.47-1.05-2.51-2.14-5-3.23-7.53-6.37,3.91-7.72,11.6-4.32,17.38,1.68,2.87,1.36,6.93,1.47,10.58-3.8-2.02-5.55-5.24-6-8.98-1.11-9.18-.67-18.28,3.55-26.7,1.15-2.29,3.47-4.05,5.47-5.8.72-.63,2.25-.92,3.14-.61,1.05.37,2.2,1.43,2.55,2.45.23.67-.74,2.44-1.4,2.57-.88.17-1.98-.77-3.22-1.34Z"/>
  <path class="cls-1" d="m205.17,125.08c-3.65-2.39-8.25-3.93-13.38-2.77-2.52.57-4.25,2.22-3.73,4.73.33,1.59,1.79,3.58,3.23,4.15,2.44.97,3.98-.38,3.66-3.01-1.57.28-3.15,1.01-4.32.59-.7-.25-1.41-2.7-.95-3.45.63-1.04,2.42-2.08,3.6-1.97,4.79.46,9.43,1.8,12.4,5.97,3.51,4.93,5.98,10.37,6.53,16.51.11,1.23.23,2.64-.25,3.68-.52,1.12-1.61,2.33-2.72,2.69-.6.19-2.1-1.14-2.55-2.09-.66-1.4-1.22-3.16-.99-4.63.85-5.37-1.82-8.44-6.18-10.71-1.43,5.07-.41,8.62,3.25,11.54,4.11,3.28,4.15,7.43-.44,9.83-5.26,2.75-10.85,4.9-16.38,7.1-1.4.56-3.1.32-4.66.45-.44-4.41,1.47-7.01,5.35-7.7,5.41-.97,7.01-2.83,7.34-9.13-4.19,2.33-9.29,2.48-10.74,8.3-.45,1.82-2.39,3.28-4.11,4.67.59-5.04-.48-10.44,4.17-14.24,3.87-3.17,1.9-7.21,1.93-11.21-5.63,2.64-6.43,4.7-5.96,9.95.27,3.01-.87,6.14-1.52,10.08-2.98-2.93-4.65-4.98-4.12-8.29.57-3.53-1.69-6.29-6.05-7.45.24,3.62-.42,6.93,3.43,9.48,4.92,3.25,5.73,11.32,2.08,15.06-12.18-9.26-13.28-27.22-2.34-37.69,2.25-2.15,4.46-4.37,6.51-6.71,3.78-4.32,7.66-8.64,6.9-15.69,1.48.8,2.41,1.27,3.31,1.8,3.18,1.86,6.3,1.4,9.69.36,2.63-.81,5.55-.65,8.45-.39-1.28,3.41-3.07,5.45-6.54,5.49-7.54.09-9.57,1.8-11.54,9.76,5.49-1.58,11.55-1.06,14.52-7.63.9-1.98,3.69-3.1,5.98-4.89,1.8,3.06,3.32,5.73,4.93,8.34.98,1.59,1.9,3.31,3.22,4.59,3.95,3.82,5.11,7.48.86,12.01-1.02,1.09-.68,3.52-.81,5.35-.12,1.62-.02,3.26-.02,4.9-.52.09-1.04.19-1.56.28-1.94-5.55-3.91-11.08-5.78-16.65-.21-.61.07-1.49.35-2.15,1.99-4.76,1.67-6.38-3.1-11.05-.36,4.44-.64,7.98-.95,11.86Z"/>
  <path class="cls-1" d="m285.1,139.75c-1.07,1.8-1.71,2.96-2.43,4.08-1.82,2.82-1.97,5.55-.77,8.83,2.05,5.59.67,11.03-2.17,16.09-.37.66-1.33,1.34-2.05,1.37-3.57.14-7.15.06-11.07.06-.65-3.87.9-7.41,3.68-9.8,3.45-2.97,2.64-6.26,2.58-9.85-3.95.88-6.59,4.32-6,7.4.95,5.01-2.68,12.41-7.79,13.58-13.25,3.04-24.23,9.76-34.54,18.4-6.94,5.81-12.35,6.21-24.48,4.95.59-4.79,5.17-7.1,9.87-4.97,4.54,2.06,7.08,1.29,9.66-2.92-4.5-1.71-8.98-2.69-13.59.25.31-.59.46-1.39.94-1.74,4.82-3.51,9.56-7.19,14.65-10.26,1.56-.94,4.51-.91,6.19-.06,5.39,2.74,10.3,2.39,15.09-2.1-1.82-.55-3.47-.97-5.06-1.57-1.46-.55-2.85-1.3-5.36-2.47,5.1-2.55,9.09-5.83,13.44-6.41,6.24-.83,8.52-4.68,10.86-9.34-6.1-1.91-9.23-.43-11.96,4.72-2.01,3.78-5.83,5.4-9.47,6.69-1.4-4.06-2.7-7.8-3.93-11.36,5.05-3.17,10.45-6.91,16.21-9.96,1.87-.99,5.06-.96,7.01-.05,5.92,2.78,9.4,2.36,13.87-2.92-5.36-1.72-10.49-4.38-15.82,0-.57.47-1.98-.07-3-.14.26-.87.25-2.11.84-2.55,2.87-2.17,5.84-4.2,8.9-6.09.71-.44,2.05-.43,2.85-.07,3.75,1.66,7.93,2.9,10.95,5.47,2.66,2.27,5.14,2.48,8.1,2.42.96-.02,1.93.14,3.77.28Z"/>
  <path class="cls-1" d="m111.09,78.82c-5.7,1.34-10.09-.36-13.72-5.39,5.3-2.27,10.24-3.77,14.8,1.76,1.32,1.6,4.05,2.03,6.14,2.99.21-.42.41-.83.62-1.25-3.45-4.09-7.56-7.76-12.84-8.71-9.64-1.72-19.44-2.57-29.18-3.73-.7-.08-1.53.1-2.17.41-4.05,2.02-7.97,1.37-11.89-.41-2.01-.91-4.06-1.77-6.67-2.89-.19.32-.39.65-.57.99-.83,1.6-2.03,2.4-3.3,2.61-3,4.91-5.35,10.35-8.25,15.62-1.21,2.2-3.25,2.83-5.12,2.45,0,0-.01.02-.02.02-.09.25-.16.5-.25.75,3.05.36,4.84.47,6.57.82,3.76.75,7.61,1.24,9.98,5,1.21,1.91,2.78,3.68,4.5,5.13,2.46,2.07,5.11,3.95,7.86,5.63,2.13,1.3,4.53,2.17,6.81,3.24.29-.34.57-.67.86-1.01-1.96-3.05-4.16-5.98-5.83-9.18-2.02-3.86-1.34-7.66,1.09-9.8,1.33,1.77,2.64,3.55,3.99,5.31,1.8,2.34,3.02,4.62,2.04,7.89-1.11,3.7,1.11,6.26,4.72,9.16,1.48-10.88,3.41-20.87-2.63-30.01-1.36-2.06-4.55-3.2-7.13-4.02-1.09-.34-2.96,1.06-4.11,2.09-.39.35.26,2.83.57,2.86,1.43.14,2.9-.26,4.66-.5.69,2.03-.56,3.8-2.79,3.24-1.78-.45-3.84-2.42-4.46-4.18-.8-2.28.78-4.25,3.35-4.95,4.34-1.18,9.61.57,12.41,4.18.94,1.21,1.81,2.49,2.2,3.03,1.83-3.53,3.65-7.05,5.75-11.11,3.47,5.14,3.37,10.45.5,12.48-3.13,2.22-4.4,7.02-2.44,11.82,1.4-1.78,2.37-3.44,3.73-4.65,3.89-3.44,7.86-3.24,11.33.58,1.94,2.13,3.59.97,4.63-.5,2.16-3.05,4.97-2.8,8.02-2.4,1.86.24,3.75.27,5.9.42-1.38-4.35-5.79-6.71-9.67-5.8Z"/>
  <path class="cls-1" d="m172.33,89.31c-7.69-.8-9.04,4.09-9.87,9.52-.16,1.07-.5,2.43-1.25,3.06-5.73,4.75-2.56,9.85-.84,15.94,3.13-5.39,6.89-9.35,3.9-15.62-2.13-4.46,2.42-10.6,7.17-9.97,1.75.23,4.1,1.75,4.76,3.28,1.69,3.98,2.01,8.3-.62,12.18-2.23,3.3-4.44,6.64-7.03,9.65-5.48,6.35-12.77,11.37-13.88,20.7-6.48-3.25-8.19-12.66-3.67-17.26.66-.67,1.76-1.49,2.51-1.36,1.16.2,2.2,1.16,3.28,1.8-.84,1.15-1.68,2.3-2.59,3.53,1.56,1.42,3.89.82,4.04-1.8.09-1.55-.52-3.61-1.59-4.64-.91-.88-3.04-1.09-4.43-.75-3.48.84-4.58,3.92-5.43,7-.36,1.28-.54,2.62-1,4.89-4.23-6.52-5.21-12.58-3.04-19.04.91-2.7,2.27-5.26,3.5-7.85,1.35-2.86,1.68-5.58.1-8.57-1.71-3.25.33-11.84,3.01-13.93,2.9-2.28,8.71-1.83,13.08,1.41-1.6,1.95-2.83,4.59-4.88,5.7-3.91,2.1-3.58,5.47-4.18,8.91,4.85-.98,6.35-3.17,6.87-7.51.23-1.87,1.87-3.99,3.48-5.12.89-.62,3.16.38,4.61,1.07,1.54.73,2.85,1.96,4.26,2.97-.08.61-.17,1.21-.25,1.82Z"/>
  <path class="cls-1" d="m81.89,147.31c.16,5.94-1.09,11.43,4.83,15.19,2.37,1.51,2.25,4.72,1.29,7.58-2.77.14-4.17-1.37-4.52-3.62-.55-3.58-2.98-4.87-5.98-5.83-5.41-1.74-6.02-3.11-3.96-8.21.46-1.14.74-2.37,1.01-3.58,1.06-4.74,4.94-8.32,10.07-9.11,4.49-.69,6.83,2.32,8.91,5.53,1.14,1.77,2.09,3.7,2.92,5.64,2.74,6.39,7.44,9.49,14.42,8.86,8.94-.81,17.39.64,25.05,5.55,1.95,1.25,3.72,2.78,6.16,4.62-3.48,1.4-5.62.44-7.9-.93-2.69-1.6-5.6-2.83-8.43-4.19-.78-.38-1.66-.56-2.38-1.03-5.13-3.31-7.87-2.57-11.01,3.2,3.23,2.36,6.31,1.87,9.53-.11,3.15-1.93,5.53-1.33,8.25,2.17-2.03.3-3.82.43-5.53.85-3.25.81-6.45,1.83-9.69,2.7-1.3.35-2.65.82-3.96.76-6.73-.28-9.54,1.41-12.63,7.86,6.08,1.49,10.67-.17,14.35-4.78,1.07-1.33,2.87-2.08,4.92-2.61-2.08,4.39-6.29,8.07-1.66,12.76-7.76,6.8-17.88,6.41-22.52-.53-3.95-5.89-2.04-10.85,4.73-12.32,5.49-1.2,6.67-6.1,9.01-10-.18-.37-.35-.74-.53-1.11-2.93.95-6.3,1.31-8.67,3.04-2.27,1.66-3.5,4.74-5.83,8.13-.84-4.73-2.26-8.87-2.15-12.98.2-7.07-1.03-10.01-8.13-13.53Z"/>
  <path class="cls-1" d="m214.87,176c1.02-4.05,1.88-7.49,2.92-11.6-5.59,1.84-7.06,4.56-6.17,9.1.2,1.01.17,2.47-.42,3.15-3.41,3.97-7.01,7.77-11.37,11.39,3.36-6.63,1.13-11.68-3.38-16.78-1.83,5.47-4.68,10.29.11,15.51,2.07,2.26,1.29,5.19-.81,7.48-.5.54-1.12.99-1.73,1.41-6.63,4.6-7.76,4.09-9.01-3.73-.75-4.68-1.77-9.31-2.51-13.99-.68-4.34.39-5.74,4.34-7.5,8.52-3.79,16.88-7.93,25.46-11.57,3.54-1.5,7.47-2.06,11.27-3.06,1.08,2.75-.5,6.51,3.44,5.73-.13-1.7-.59-3.24-.21-4.54.16-.55,2.77-1.13,3.06-.76.98,1.24,2.22,3.15,1.88,4.38-.7,2.53-1.82,5.49-3.76,7.03-4.1,3.24-8.83,5.68-13.1,8.34Z"/>
  <path class="cls-1" d="m141.63,64.29c1.41,5.39,4.45,9.11,10.39,11.62-6.58,2.68-6.98,7.43-7.76,12.2-.37,2.26-2.4,4.23-2.86,6.5-.73,3.53-.86,7.2-1.05,10.82-.16,3.07-.03,6.15-.64,9.32-5.05-4.68-8.52-10.21-10.11-16.42-1.49-5.84-2.03-12.03-2.08-18.07-.02-2.19,2.2-5.84,4.06-6.34,5.2-1.4,8.18-4.33,10.05-9.64Z"/>
  <path class="cls-1" d="m121.95,180.6c-.97,2.05-1.27,3.6-2.2,4.3-.5.37-2.83-.5-3.02-1.18-.38-1.33-.33-3.24.4-4.36,4.07-6.3,9.42-8.01,17.93-6,5.18,1.22,10.34,2.55,15.5,3.86,4.47,1.13,7.22,4.42,7.22,8.79-3.51.11-6.7-.06-9.49-2.95-1.12-1.16-3.64-1.62-5.38-1.39-2.73.37-5.35,1.61-8.83,2.75,5.49,3.44,9.74,6.22,15.91,3.55,2.15-.93,6.29.52,8.39,2.26,2.71,2.24,4.3,5.86,3.62,10.5-3.92-2.03-7.32-3.72-10.66-5.53-7.66-4.14-15.97-6.2-24.48-7.52-2.34-.36-4.16-.64-3.54-3.8.17-.88-.78-1.98-1.35-3.29Z"/>
  <path class="cls-1" d="m217.23,288.34c.59,0,1.14.09,1.63.24.05,0,.1-.02.15-.02,1.02-.05,2.04-.07,3.07-.08.12-.08.23-.15.36-.23-6.85-.19-13.79-1.82-21.08,1.29,4.54,2.63,7.95,3.58,11.27,3.17.15-2.27,1.66-4.36,4.6-4.36Z"/>
  <path class="cls-1" d="m216.97,145.81c.73-2.4,1.15-4.97,2.28-7.16,1.45-2.79,3.49-5.28,5.26-7.87,2.46,1.94,3.1,4.71.81,7.72-2.13,2.79-4.58,5.33-6.89,7.98-.49-.22-.97-.45-1.46-.67Z"/>
  <path class="cls-1" d="m106.08,212.63c1.5-1.01,2.35-2.02,3.07-1.94.83.09,1.95,1.05,2.17,1.85.15.53-1.09,2.07-1.65,2.04-.97-.04-1.9-.96-3.59-1.95Z"/>
</svg>